<svg width="24" height="24" viewBox="0 0 24 24" fill="none" xmlns="http://www.w3.org/2000/svg">
<path d="M15 21L8 16V8L15 3V21ZM18.2891 5.5918C20.2309 6.96497 21.5 9.32924 21.5 12C21.5 14.6708 20.2309 17.035 18.2891 18.4082L17.7109 17.5918C19.3812 16.4107 20.5 14.3544 20.5 12C20.5 9.64559 19.3812 7.58926 17.7109 6.4082L18.2891 5.5918ZM17.2891 7.5918C18.6288 8.53927 19.5 10.1668 19.5 12C19.5 13.8332 18.6288 15.4607 17.2891 16.4082L16.7109 15.5918C17.7792 14.8364 18.5 13.5169 18.5 12C18.5 10.4831 17.7792 9.16356 16.7109 8.4082L17.2891 7.5918ZM7 16H3V8H7V16Z" fill="#333333"/>
</svg>
